<?xml version="1.0" standalone="no"?>
<!DOCTYPE svg PUBLIC "-//W3C//DTD SVG 20010904//EN"
 "http://www.w3.org/TR/2001/REC-SVG-20010904/DTD/svg10.dtd">
<svg version="1.0" xmlns="http://www.w3.org/2000/svg"
 width="512.000000pt" height="512.000000pt" viewBox="0 0 512.000000 512.000000"
 preserveAspectRatio="xMidYMid meet">
<metadata>
Created by potrace 1.16, written by Peter Selinger 2001-2019
</metadata>
<g transform="translate(0.000000,512.000000) scale(0.100000,-0.100000)"
fill="#000000" stroke="none">
<path d="M1880 4614 c-14 -2 -65 -9 -115 -15 -250 -30 -538 -115 -770 -228
-520 -252 -859 -645 -971 -1126 -15 -64 -19 -119 -19 -280 0 -184 2 -209 27
-307 63 -248 184 -467 364 -658 57 -60 65 -73 53 -84 -8 -7 -102 -86 -211
-174 -108 -89 -205 -173 -217 -188 -16 -20 -21 -41 -21 -83 0 -72 26 -115 83
-141 40 -18 71 -20 553 -20 l512 0 16 -25 c30 -45 199 -216 275 -277 272 -220
627 -382 1001 -458 241 -49 271 -50 1465 -50 1080 0 1121 1 1149 19 15 10 37
32 47 47 25 38 26 129 1 165 -9 15 -111 104 -227 199 -115 95 -212 174 -214
176 -2 2 27 36 63 76 193 213 312 434 372 693 27 115 27 435 0 550 -68 291
-195 515 -421 740 -140 140 -255 227 -431 327 l-110 63 -45 80 c-94 170 -278
380 -444 506 -293 224 -645 373 -1055 446 -128 23 -177 26 -415 29 -148 1
-281 1 -295 -2z m515 -315 c711 -74 1325 -479 1501 -991 95 -277 79 -530 -51
-793 -136 -277 -393 -516 -725 -674 -208 -98 -388 -153 -635 -193 -123 -20
-174 -22 -945 -25 -448 -2 -846 -3 -883 -1 l-69 3 123 100 c126 104 149 134
149 198 0 64 -19 93 -110 171 -200 170 -338 375 -407 606 -35 116 -44 335 -18
460 63 312 270 596 585 805 409 271 939 391 1485 334z m1967 -1266 c226 -187
377 -428 430 -683 26 -126 21 -335 -11 -455 -59 -217 -211 -447 -406 -615 -48
-40 -93 -86 -101 -101 -19 -38 -18 -108 4 -146 9 -17 71 -76 137 -130 l120
-98 -45 -3 c-25 -2 -416 -2 -870 1 -700 4 -842 7 -940 21 -420 61 -777 207
-1047 430 l-62 51 392 6 c462 8 582 20 841 85 739 186 1292 680 1430 1278 24
100 39 275 32 359 -8 91 -14 91 96 0z"/>
<path d="M1672 3700 c-95 -58 -97 -204 -3 -262 l36 -23 727 0 c722 0 727 0
755 21 95 70 97 199 4 261 l-34 23 -726 0 c-707 0 -727 -1 -759 -20z"/>
<path d="M1073 3690 c-46 -28 -76 -92 -70 -148 6 -57 32 -91 90 -120 37 -19
55 -22 87 -17 137 23 176 205 61 282 -44 30 -122 31 -168 3z"/>
<path d="M1073 3100 c-46 -28 -76 -92 -70 -148 6 -56 32 -91 88 -120 l44 -22
1012 2 c1009 3 1012 3 1040 24 95 70 97 199 4 261 l-34 23 -1026 0 c-1001 0
-1027 -1 -1058 -20z"/>
<path d="M1073 2500 c-46 -28 -76 -92 -70 -148 6 -56 32 -91 88 -120 l44 -22
695 2 c678 3 696 3 730 23 72 43 97 145 52 217 -44 71 -10 68 -799 68 -685 0
-709 -1 -740 -20z"/>
<path d="M3023 2500 c-46 -28 -76 -92 -70 -148 6 -57 32 -91 90 -120 37 -19
55 -22 87 -17 137 23 176 205 61 282 -44 30 -122 31 -168 3z"/>
</g>
</svg>
