<?xml version="1.0" standalone="no"?>
<!DOCTYPE svg PUBLIC "-//W3C//DTD SVG 20010904//EN"
 "http://www.w3.org/TR/2001/REC-SVG-20010904/DTD/svg10.dtd">
<svg version="1.0" xmlns="http://www.w3.org/2000/svg"
 width="512.000000pt" height="512.000000pt" viewBox="0 0 512.000000 512.000000"
 preserveAspectRatio="xMidYMid meet">
<metadata>
Created by potrace 1.16, written by Peter Selinger 2001-2019
</metadata>
<g transform="translate(0.000000,512.000000) scale(0.100000,-0.100000)"
fill="#000000" stroke="none">
<path d="M2235 4625 c-367 -48 -699 -153 -996 -316 -563 -310 -919 -790 -919
-1238 0 -98 17 -137 72 -171 33 -20 55 -20 2169 -20 l2136 0 33 23 c64 43 75
68 73 167 -8 298 -153 597 -417 863 -372 374 -901 616 -1511 692 -146 18 -497
18 -640 0z m704 -340 c641 -103 1198 -444 1430 -876 36 -67 81 -178 81 -201 0
-4 -850 -8 -1890 -8 -1039 0 -1890 4 -1890 8 0 23 45 134 81 201 120 223 334
430 614 593 235 137 544 243 821 282 60 9 123 17 139 20 76 11 514 -2 614 -19z"/>
<path d="M2632 4140 c-48 -30 -72 -75 -72 -140 0 -100 60 -160 160 -160 100 0
160 60 160 160 0 100 -60 160 -160 160 -37 0 -66 -6 -88 -20z"/>
<path d="M1672 3820 c-48 -30 -72 -75 -72 -140 0 -100 60 -160 160 -160 100 0
160 60 160 160 0 100 -60 160 -160 160 -37 0 -66 -6 -88 -20z"/>
<path d="M3432 3660 c-48 -30 -72 -75 -72 -140 0 -100 60 -160 160 -160 100 0
160 60 160 160 0 100 -60 160 -160 160 -37 0 -66 -6 -88 -20z"/>
<path d="M335 2701 c-88 -32 -138 -62 -196 -120 -94 -95 -139 -204 -139 -341
0 -137 45 -246 139 -341 60 -59 109 -89 200 -120 52 -18 128 -19 2221 -19
2093 0 2169 1 2221 19 91 31 140 61 200 120 94 95 139 204 139 341 0 137 -45
246 -139 341 -60 59 -109 89 -200 120 -52 18 -127 19 -2225 18 -2057 0 -2174
-1 -2221 -18z m4375 -327 c107 -63 107 -205 0 -268 l-35 -21 -2115 0 -2115 0
-35 21 c-126 73 -99 250 43 284 17 5 975 7 2127 7 2094 -2 2095 -2 2130 -23z"/>
<path d="M392 1580 c-18 -11 -41 -34 -52 -52 -18 -30 -20 -51 -20 -265 0 -128
5 -256 11 -285 6 -29 31 -95 56 -147 63 -131 153 -221 284 -284 52 -25 118
-50 147 -56 74 -15 3410 -15 3484 0 29 6 95 31 147 56 131 63 221 153 284 284
25 52 50 118 56 147 6 29 11 157 11 285 0 214 -2 235 -20 265 -11 18 -34 41
-52 52 -33 20 -55 20 -2168 20 -2113 0 -2135 0 -2168 -20z m4085 -407 c-7
-139 -31 -206 -97 -273 -31 -30 -71 -57 -107 -72 l-58 -23 -1655 0 -1655 0
-58 23 c-36 15 -76 42 -107 72 -66 67 -90 134 -97 273 l-6 107 1923 0 1923 0
-6 -107z"/>
</g>
</svg>
